<?xml version="1.0" encoding="UTF-8" standalone="no"?>
<!-- Created with Inkscape (http://www.inkscape.org/) -->

<svg
   xmlns:dc="http://purl.org/dc/elements/1.1/"
   xmlns:cc="http://creativecommons.org/ns#"
   xmlns:rdf="http://www.w3.org/1999/02/22-rdf-syntax-ns#"
   xmlns:svg="http://www.w3.org/2000/svg"
   xmlns="http://www.w3.org/2000/svg"
   xmlns:sodipodi="http://sodipodi.sourceforge.net/DTD/sodipodi-0.dtd"
   xmlns:inkscape="http://www.inkscape.org/namespaces/inkscape"
   id="svg2"
   version="1.1"
   inkscape:version="0.91 r13725"
   width="600"
   height="450"
   viewBox="0 0 600 450"
   sodipodi:docname="kite (bird) silhouette.svg">
  <metadata
     id="metadata8">
    <rdf:RDF>
      <cc:Work
         rdf:about="">
        <dc:format>image/svg+xml</dc:format>
        <dc:type
           rdf:resource="http://purl.org/dc/dcmitype/StillImage" />
        <dc:title></dc:title>
      </cc:Work>
    </rdf:RDF>
  </metadata>
  <defs
     id="defs6" />
  <sodipodi:namedview
     pagecolor="#ffffff"
     bordercolor="#666666"
     borderopacity="1"
     objecttolerance="10"
     gridtolerance="10"
     guidetolerance="10"
     inkscape:pageopacity="0"
     inkscape:pageshadow="2"
     inkscape:window-width="1156"
     inkscape:window-height="871"
     id="namedview4"
     showgrid="false"
     inkscape:zoom="0.17051811"
     inkscape:cx="300"
     inkscape:cy="225"
     inkscape:window-x="680"
     inkscape:window-y="95"
     inkscape:window-maximized="0"
     inkscape:current-layer="svg2" />
  <g
     id="g83680"
     style="fill:#191919;fill-opacity:1"
     transform="matrix(4.4660696,0,0,4.4660696,-814.38426,-472.809)">
    <path
       style="fill:#191919;fill-opacity:1"
       d="m 300.65463,195.875 c -0.56082,-0.61875 -1.8122,-2.3835 -2.78084,-3.92167 -1.60469,-2.5482 -1.89541,-2.77697 -3.27226,-2.57489 -0.94515,0.13872 -1.60415,0.57755 -1.75951,1.17167 -0.34151,1.30593 -1.44244,1.18968 -2.84202,-0.30011 -0.64588,-0.6875 -1.61164,-1.25 -2.14615,-1.25 -0.53451,0 -1.74062,-0.675 -2.68024,-1.5 -0.93962,-0.825 -2.0032,-1.5 -2.36352,-1.5 -0.36031,0 -1.04404,-0.42977 -1.5194,-0.95503 -0.47536,-0.52527 -1.46648,-1.10333 -2.20249,-1.28459 -0.73601,-0.18126 -2.0132,-0.95428 -2.8382,-1.71784 -0.825,-0.76355 -2.85,-1.77901 -4.5,-2.25656 -1.65,-0.47755 -3.28125,-0.9552 -3.625,-1.06144 -0.6271,-0.19381 -0.80885,-1.04601 -0.65082,-3.05179 0.11686,-1.48331 -0.75639,-1.882 -2.08456,-0.95172 -1.56098,1.09335 -4.04687,0.98645 -5.13962,-0.22103 -0.49775,-0.55 -1.21785,-1 -1.60022,-1 -0.38238,0 -1.24028,-0.54505 -1.90644,-1.21121 -0.66617,-0.66616 -1.67237,-1.35757 -2.23602,-1.53647 -0.56364,-0.17889 -1.69932,-1.0401 -2.52373,-1.91379 -1.25414,-1.3291 -1.57809,-1.46605 -1.98361,-0.83853 -0.26657,0.4125 -0.48812,1.24297 -0.49233,1.84549 -0.004,0.60252 -0.26205,1.25272 -0.57298,1.44488 -0.31092,0.19216 -1.65657,2.68044 -2.99033,5.52951 -2.22067,4.74364 -2.54167,5.18004 -3.80967,5.17915 -1.8209,-0.001 -4.71786,-4.05023 -4.31473,-6.03051 l 0.26088,-1.28148 -4.66541,0.0315 c -4.49966,0.0303 -4.67121,-0.009 -4.8286,-1.11957 -0.11572,-0.81622 0.6272,-2.05253 2.55389,-4.25 1.4944,-1.70443 2.87489,-3.59936 3.06776,-4.21096 0.19288,-0.61161 1.06862,-1.60406 1.94611,-2.20544 3.61827,-2.4798 4.34543,-3.47425 4.34543,-5.94276 0,-2.96187 -0.43044,-3.36874 -1.57419,-1.488 -1.09994,1.80871 -2.59746,1.9405 -4.24054,0.37321 -1.80228,-1.71915 -4.33136,-3.87277 -5.35285,-4.55817 -0.50467,-0.33863 -1.07483,-1.38454 -1.26702,-2.32424 -0.29491,-1.44196 -0.61728,-1.76334 -2.06599,-2.05963 -1.267,-0.25913 -2.64403,-1.3439 -5.25796,-4.14202 C 218.79368,140.70592 216.93874,139 216.61935,139 c -0.31939,0 -1.45781,-0.84375 -2.52982,-1.875 -1.072,-1.03125 -2.93695,-2.72226 -4.14432,-3.75781 -1.20737,-1.03554 -2.75771,-2.4263 -3.44521,-3.09058 -0.6875,-0.66428 -1.85952,-1.35784 -2.60449,-1.54125 -0.74497,-0.18341 -1.63768,-0.67469 -1.98379,-1.09172 -0.52026,-0.62688 -0.43843,-0.9128 0.47225,-1.65023 0.89124,-0.72168 0.95974,-0.94639 0.35879,-1.177 C 202.33424,124.65964 202,124.10598 202,123.58604 c 0,-0.72441 -0.78877,-1.20411 -3.375,-2.05254 -5.85742,-1.92157 -6.86684,-3.7609 -1.89005,-3.44401 2.96038,0.18851 3.17257,0.13706 2.5,-0.60612 -1.924,-2.126 -0.22248,-2.51341 4.51505,-1.02804 2.5253,0.79177 3.06327,0.83016 3.39984,0.24263 0.63151,-1.10234 1.56152,-0.87081 8.06806,2.00859 3.36378,1.48861 8.00959,3.37597 10.32403,4.19412 5.43201,1.92023 9.88228,4.5967 12.50344,7.5198 5.03693,5.61715 11.86456,12.25983 13.70463,13.33337 1.13098,0.65985 2.80029,1.16236 3.84184,1.15651 2.42054,-0.0136 3.05569,0.43378 2.68915,1.89419 -0.16502,0.6575 -0.0782,1.19546 0.19282,1.19546 0.27107,0 1.30113,0.80827 2.28902,1.79616 1.99045,1.99046 6.54519,4.22198 13.73717,6.73031 6.05582,2.11207 9.21239,4.11308 12.28609,7.78839 1.35008,1.61433 5.35199,5.78252 8.89314,9.26266 6.07489,5.97022 7.36979,7.94419 4.76434,7.26285 -1.49894,-0.39198 -1.14214,0.28635 2.05643,3.90963 1.65,1.86909 3,3.70247 3,4.07417 0,1.19622 -1.86183,0.72283 -4.2117,-1.07087 C 300.02974,186.79262 299,186.078 299,186.16526 c 0,0.0873 0.7875,1.97588 1.75,4.19692 2.39226,5.52033 2.3458,8.20613 -0.0954,5.51282 z"
       id="path83684"
       inkscape:connector-curvature="0" />
  </g>
</svg>
