{
    "asset" : {
        "extensions" : {
            "ASOBO_normal_map_convention" : {
                "tangent_space_convention" : "DirectX"
            }
        },
        "generator" : "Khronos glTF Blender I/O v1.8.19 and Asobo Studio MSFS Blender I/O v1.1.6",
        "version" : "2.0"
    },
    "extensionsUsed" : [
        "ASOBO_normal_map_convention"
    ],
    "scene" : 0,
    "scenes" : [
        {
            "name" : "Scene",
            "nodes" : [
                0,
                1,
                2
            ]
        }
    ],
    "nodes" : [
        {
            "mesh" : 0,
            "name" : "shelter body outer"
        },
        {
            "mesh" : 1,
            "name" : "garage front bricks"
        },
        {
            "mesh" : 2,
            "name" : "garage doors"
        }
    ],
    "materials" : [
        {
            "name" : "EDCD shelter grass",
            "normalTexture" : {
                "index" : 0
            },
            "occlusionTexture" : {
                "index" : 1
            },
            "pbrMetallicRoughness" : {
                "baseColorFactor" : [
                    0.3571465313434601,
                    0.3552401065826416,
                    0.4262131452560425,
                    1
                ],
                "baseColorTexture" : {
                    "index" : 2
                },
                "metallicRoughnessTexture" : {
                    "index" : 1
                }
            }
        },
        {
            "name" : "EDCD shelter bricks alt",
            "normalTexture" : {
                "index" : 3
            },
            "occlusionTexture" : {
                "index" : 4
            },
            "pbrMetallicRoughness" : {
                "baseColorTexture" : {
                    "index" : 5
                },
                "metallicRoughnessTexture" : {
                    "index" : 4
                }
            }
        },
        {
            "name" : "EDCD shelter gate paint",
            "pbrMetallicRoughness" : {
                "baseColorFactor" : [
                    0.1262182742357254,
                    0.09210274368524551,
                    0.023885732516646385,
                    1
                ],
                "metallicFactor" : 0.010000050067901611,
                "roughnessFactor" : 0.8199999928474426
            }
        }
    ],
    "meshes" : [
        {
            "name" : "Cylinder.001",
            "primitives" : [
                {
                    "attributes" : {
                        "POSITION" : 0,
                        "NORMAL" : 1,
                        "TEXCOORD_0" : 2
                    },
                    "indices" : 3,
                    "material" : 0
                }
            ]
        },
        {
            "name" : "Cube.002",
            "primitives" : [
                {
                    "attributes" : {
                        "POSITION" : 4,
                        "NORMAL" : 5,
                        "TEXCOORD_0" : 6
                    },
                    "indices" : 7,
                    "material" : 1
                }
            ]
        },
        {
            "name" : "Cube.003",
            "primitives" : [
                {
                    "attributes" : {
                        "POSITION" : 8,
                        "NORMAL" : 9,
                        "TEXCOORD_0" : 10
                    },
                    "indices" : 11,
                    "material" : 2
                }
            ]
        }
    ],
    "textures" : [
        {
            "sampler" : 0,
            "source" : 0
        },
        {
            "sampler" : 0,
            "source" : 1
        },
        {
            "sampler" : 0,
            "source" : 2
        },
        {
            "sampler" : 0,
            "source" : 3
        },
        {
            "sampler" : 0,
            "source" : 4
        },
        {
            "sampler" : 0,
            "source" : 5
        }
    ],
    "images" : [
        {
            "mimeType" : "image/png",
            "name" : "edcd_shelter_grass-normal_flipped",
            "uri" : "edcd_shelter_grass-normal_flipped.png"
        },
        {
            "mimeType" : "image/png",
            "name" : "edcd_shelter_grass-composite",
            "uri" : "edcd_shelter_grass-composite.png"
        },
        {
            "mimeType" : "image/png",
            "name" : "edcd_shelter_grass_Base_Color",
            "uri" : "edcd_shelter_grass_Base_Color.png"
        },
        {
            "mimeType" : "image/png",
            "name" : "edcd_shelter_bricks_alt_Normal",
            "uri" : "edcd_shelter_bricks_alt_Normal.png"
        },
        {
            "mimeType" : "image/png",
            "name" : "edcd_shelter_bricks_alt-composite",
            "uri" : "edcd_shelter_bricks_alt-composite.png"
        },
        {
            "mimeType" : "image/png",
            "name" : "edcd_shelter_bricks_alt_Base_Color",
            "uri" : "edcd_shelter_bricks_alt_Base_Color.png"
        }
    ],
    "accessors" : [
        {
            "bufferView" : 0,
            "componentType" : 5126,
            "count" : 95,
            "max" : [
                12.394786834716797,
                6.275033950805664,
                14.553903579711914
            ],
            "min" : [
                -14.987181663513184,
                -1.521705150604248,
                -1.0004081726074219
            ],
            "type" : "VEC3"
        },
        {
            "bufferView" : 1,
            "componentType" : 5126,
            "count" : 95,
            "type" : "VEC3"
        },
        {
            "bufferView" : 2,
            "componentType" : 5126,
            "count" : 95,
            "type" : "VEC2"
        },
        {
            "bufferView" : 3,
            "componentType" : 5123,
            "count" : 477,
            "type" : "SCALAR"
        },
        {
            "bufferView" : 4,
            "componentType" : 5126,
            "count" : 104,
            "max" : [
                8.822269439697266,
                5.235374450683594,
                14.947460174560547
            ],
            "min" : [
                -12.142602920532227,
                -1.2422208786010742,
                14.45261001586914
            ],
            "type" : "VEC3"
        },
        {
            "bufferView" : 5,
            "componentType" : 5126,
            "count" : 104,
            "type" : "VEC3"
        },
        {
            "bufferView" : 6,
            "componentType" : 5126,
            "count" : 104,
            "type" : "VEC2"
        },
        {
            "bufferView" : 7,
            "componentType" : 5123,
            "count" : 198,
            "type" : "SCALAR"
        },
        {
            "bufferView" : 8,
            "componentType" : 5126,
            "count" : 60,
            "max" : [
                5.054444789886475,
                3.499467372894287,
                15.095037460327148
            ],
            "min" : [
                -7.65069580078125,
                -0.0005326271057128906,
                14.672761917114258
            ],
            "type" : "VEC3"
        },
        {
            "bufferView" : 9,
            "componentType" : 5126,
            "count" : 60,
            "type" : "VEC3"
        },
        {
            "bufferView" : 10,
            "componentType" : 5126,
            "count" : 60,
            "type" : "VEC2"
        },
        {
            "bufferView" : 11,
            "componentType" : 5123,
            "count" : 90,
            "type" : "SCALAR"
        }
    ],
    "bufferViews" : [
        {
            "buffer" : 0,
            "byteLength" : 1140,
            "byteOffset" : 0
        },
        {
            "buffer" : 0,
            "byteLength" : 1140,
            "byteOffset" : 1140
        },
        {
            "buffer" : 0,
            "byteLength" : 760,
            "byteOffset" : 2280
        },
        {
            "buffer" : 0,
            "byteLength" : 954,
            "byteOffset" : 3040
        },
        {
            "buffer" : 0,
            "byteLength" : 1248,
            "byteOffset" : 3996
        },
        {
            "buffer" : 0,
            "byteLength" : 1248,
            "byteOffset" : 5244
        },
        {
            "buffer" : 0,
            "byteLength" : 832,
            "byteOffset" : 6492
        },
        {
            "buffer" : 0,
            "byteLength" : 396,
            "byteOffset" : 7324
        },
        {
            "buffer" : 0,
            "byteLength" : 720,
            "byteOffset" : 7720
        },
        {
            "buffer" : 0,
            "byteLength" : 720,
            "byteOffset" : 8440
        },
        {
            "buffer" : 0,
            "byteLength" : 480,
            "byteOffset" : 9160
        },
        {
            "buffer" : 0,
            "byteLength" : 180,
            "byteOffset" : 9640
        }
    ],
    "samplers" : [
        {
            "magFilter" : 9729,
            "minFilter" : 9987
        }
    ],
    "buffers" : [
        {
            "byteLength" : 9820,
            "uri" : "edcd-garage_LOD00.bin"
        }
    ]
}
